<?xml version="1.0" standalone="no"?>
<!DOCTYPE svg PUBLIC "-//W3C//DTD SVG 20010904//EN"
 "http://www.w3.org/TR/2001/REC-SVG-20010904/DTD/svg10.dtd">
<svg version="1.0" xmlns="http://www.w3.org/2000/svg"
 width="85.000000pt" height="165.000000pt" viewBox="0 0 85.000000 165.000000"
 preserveAspectRatio="xMidYMid meet">

<g transform="translate(0.000000,165.000000) scale(0.100000,-0.100000)"
fill="#000000" stroke="none">
<path d="M240 1620 c-14 -26 -62 -50 -100 -50 -42 0 -70 -16 -70 -42 0 -11
-16 -36 -35 -54 -34 -32 -35 -34 -15 -44 20 -11 20 -19 20 -645 0 -550 -2
-636 -15 -649 -19 -19 -19 -50 0 -66 8 -7 15 -23 15 -36 0 -28 35 -41 78 -29
15 4 69 10 120 12 l92 4 0 410 0 409 48 0 c66 0 114 16 143 46 23 25 24 31 24
168 0 121 -3 146 -18 170 -10 15 -17 28 -15 29 2 1 17 10 33 19 90 51 111 60
155 65 32 4 64 0 96 -11 26 -9 49 -16 51 -16 2 0 3 70 3 155 l0 155 -26 10
c-49 19 -119 12 -185 -20 -80 -37 -189 -62 -259 -58 -51 3 -56 5 -83 46 -32
47 -42 51 -57 22z m238 -424 c12 -12 19 -43 23 -104 11 -142 -14 -197 -92
-197 -58 0 -71 19 -73 108 0 41 3 79 7 83 10 11 76 -25 88 -48 13 -24 29 -23
29 2 0 23 -51 84 -91 107 -33 20 -36 34 -12 58 21 21 97 15 121 -9z"/>
</g>
</svg>
